<svg width="40" height="40" fill="none" xmlns="http://www.w3.org/2000/svg"><path d="M39.563 20.001c0 10.813-8.75 19.562-19.562 19.562-10.813 0-19.563-8.75-19.563-19.562C.438 9.188 9.188.438 20.001.438c10.813 0 19.562 8.75 19.562 19.563zM20.001 1.626A18.325 18.325 0 001.626 20.001c0 10.188 8.25 18.375 18.375 18.375 10.188 0 18.375-8.25 18.375-18.375A18.325 18.325 0 0020.001 1.626z" fill="url(#paint0_linear_427:10362)"/><path d="M20 1.625A18.325 18.325 0 001.625 20c0 10.188 8.25 18.376 18.375 18.376 10.188 0 18.375-8.25 18.375-18.375A18.325 18.325 0 0020 1.624zm0 35.563C10.5 37.188 2.812 29.5 2.812 20S10.5 2.813 20 2.813s17.188 7.688 17.188 17.188S29.5 37.188 20 37.188z" fill="url(#paint1_linear_427:10362)"/><path opacity=".4" d="M20 39.563c10.813 0 19.563-8.75 19.563-19.563C39.563 9.187 30.813.437 20 .437 9.187.438.437 9.188.437 20c0 10.813 8.75 19.563 19.563 19.563zM20 0c11 0 20 9 20 20s-9 20-20 20S0 31 0 20 9 0 20 0z" fill="url(#paint2_linear_427:10362)"/><path d="M1.376 20.064c0-10.25 8.312-18.688 18.625-18.688s18.625 8.375 18.625 18.688c0 10.25-8.312 18.562-18.625 18.562S1.376 30.314 1.376 20.064zM7.188 7.188c-3.312 3.313-5.375 7.875-5.375 12.876 0 5 2.063 9.562 5.313 12.812 3.312 3.25 7.875 5.313 12.875 5.313s9.563-2 12.812-5.313c3.313-3.25 5.313-7.812 5.313-12.812 0-5-2.063-9.563-5.313-12.876a17.94 17.94 0 00-12.812-5.375c-5 0-9.563 2.063-12.813 5.375z" fill="#fff"/><path opacity=".4" d="M20 37.25c-4.625 0-8.938-1.813-12.188-5.063S2.75 24.625 2.75 20c0-4.626 1.813-8.938 5.063-12.188S15.375 2.75 20 2.75c4.625 0 8.938 1.812 12.188 5.062S37.25 15.374 37.25 20c0 4.625-1.813 8.937-5.063 12.187S24.625 37.25 20 37.25zm0-.5c4.438 0 8.688-1.75 11.813-4.875C35 28.687 36.688 24.5 36.688 20.062c0-4.438-1.75-8.688-4.876-11.812C28.625 5.062 24.438 3.375 20 3.375S11.312 5.125 8.187 8.25C5 11.312 3.25 15.562 3.25 20c0 4.437 1.75 8.687 4.875 11.812A16.747 16.747 0 0020 36.749z" fill="url(#paint3_linear_427:10362)"/><path d="M35.187 28.125c-.313-.25-12.375-9.812-12.375-9.812L19.999 2.25a1.07 1.07 0 00-.562.5l-2 15.625-12.438 9.563s-.25.313-.375.5c-.062.125-.062.313-.062.5l15.375-6.313 15.375 6.313c.125-.313 0-.625-.125-.813z" fill="#fff"/><path d="M20.125 20.499L20 23.374l14.125 5.688c.5.25.875.124 1.25-.126l-15.063-8.5c-.062-.062-.187 0-.187.063z" fill="#565F64"/><path d="M20.126 20.499s.813 1.438 1.75 2.438c1.313 1.437 3.063 2.437 3.063 2.437l9.187 3.688c.5.25.875.124 1.25-.126l-15.062-8.5c-.063-.062-.188 0-.188.063z" fill="url(#paint4_linear_427:10362)"/><path d="M35.312 28.374c0-.062-.062-.125-.125-.25l-12.874-9.437-1.75 1.125s.125.063.187 0c.188-.063.563-.125.938 0 .312.125 13.624 8.625 13.624 8.562 0 .063 0 .063 0 0z" fill="#A4AAAE" fill-opacity=".6"/><path d="M34.876 27.811l-12-9.5-.563.375 12.875 9.5c-.062-.125-.187-.25-.312-.375z" fill="#333E46"/><path d="M20.313 19.564l-.063.062s0 .125.125.063c.063-.063 1.875-1 2.5-1.375l-2.188-15c-.062-.563-.312-.813-.75-1l.25 17.374.125-.124z" fill="#565F64"/><path d="M19.25 3.313v.813l-1.375 13.813a.57.57 0 00.25.5l.813.625.562-15.25.063-1.188c-.188.125-.25.375-.313.687zm-.75 16l-.75-.624-12.688 9.187s-.375.25-.437.5l.438-.25 13.312-8.375c.25-.125.313-.25.125-.438z" fill="#A4AAAE" fill-opacity=".6"/><path d="M19.812 20.499c0-.063-.063-.125-.125-.063L4.562 29c.375.25.75.313 1.25.125l14.125-5.688-.125-2.937z" fill="#565F64"/><path d="M20.25 19.625l.063-.063-.063.063s0 .062.063.062h.062c.063-.063 1.875-1 2.5-1.375l-.25-1.813-1.938-13.187c0-.25-.062-.437-.187-.562 0 0 .937 12.625.937 14 0 1.812-1.187 2.875-1.187 2.875z" fill="url(#paint5_linear_427:10362)"/><path d="M19.812 20.499c0-.063-.063-.125-.125-.063L4.562 29c.375.25.75.313 1.25.125l14.125-5.688-.125-2.937z" fill="url(#paint6_linear_427:10362)" fill-opacity=".8"/><path opacity=".8" d="M5.813 29.063l14.126-5.688-.125-2.75c-.25.75-.688 1.563-1.875 2.188-.875.5-9.25 4.625-12.25 6.062-.188.125-.438.188-.563.25.25.125.437.063.687-.063z" fill="url(#paint7_linear_427:10362)"/><path d="M20.313 19.564l-.063.062s0 .125.125.063c.063-.063 1.875-1 2.5-1.375l-2.188-15c-.062-.563-.312-.813-.75-1l.25 17.374.125-.124z" fill="url(#paint8_linear_427:10362)"/><path d="M20.313 19.564l-.063.062s0 .125.125.063c.063-.063 1.875-1 2.5-1.375l-2.188-15c-.062-.563-.312-.813-.75-1l.25 17.374.125-.124z" fill="url(#paint9_linear_427:10362)"/><path d="M3.188 27.75c-.437-1-2.937-5.875-.187-15.25H1.938c-.562 1.875-1 3-1.25 4.688 0 0-.125.625-.187 1.312-.063.688-.063 1.063-.063 1.5 0 3.75.938 5.938.938 5.938 1 3.125 2.75 5.937 5.125 8.062 2.062 1.813 5.25 3.188 7.875 3.688-.438-.063-7.938-3.25-11.188-9.938z" fill="url(#paint10_linear_427:10362)"/><path d="M20.25 20.373h-.563c.063 0 .125 0 .125.063l.125 2.875H20l.125-2.875c0-.063.063-.125.125-.063z" fill="url(#paint11_linear_427:10362)"/><path d="M26.25 1.437C32.813 3.937 39 10.812 39 19.499c0 10.5-8.375 19.063-19 19.063v1c10.625 0 19.563-8.75 19.563-19.563 0-8.625-5.5-15.875-13.313-18.562z" fill="url(#paint12_linear_427:10362)"/><path d="M36.75 12.626C32.375 2.563 22.5 2 21.937 1.938h-.062c7.563 1.375 12.375 6.312 14.063 11.5v.063c.75 2 1.124 4.124 1.187 6.437.063 2.188-.438 4.625-1.375 6.875-.063.313-.125.688-.188.688h1c3-5.626 1.688-11.313.188-14.876z" fill="url(#paint13_linear_427:10362)"/><path d="M1.376 20.064c0-10.25 8.312-18.688 18.625-18.688s18.625 8.375 18.625 18.688c0 10.25-8.312 18.562-18.625 18.562S1.376 30.314 1.376 20.064zM7.188 7.188c-3.312 3.313-5.375 7.875-5.375 12.876 0 5 2.063 9.562 5.313 12.812 3.312 3.25 7.875 5.313 12.875 5.313s9.563-2 12.812-5.313c3.313-3.25 5.313-7.812 5.313-12.812 0-5-2.063-9.563-5.313-12.876a17.94 17.94 0 00-12.812-5.375c-5 0-9.563 2.063-12.813 5.375z" fill="#FBFBFB"/><path d="M4.938 28l12.75-9.188c.687.375 1.812.875 1.937.875.125.063.125-.063.125-.063l-1.563-1.312a.568.568 0 01-.25-.5l1.5-15.062c-.062.062-.062.187-.125.25-.062.125-.062.187-.062.312l-2.188 15.063-12 9.437c-.062.063-.125.125-.125.188z" fill="#333F47"/><defs><linearGradient id="paint0_linear_427:10362" x1="5" y1="7.437" x2="35.002" y2="32.565" gradientUnits="userSpaceOnUse"><stop stop-color="#fff"/><stop offset=".1" stop-color="#CDD0D0"/><stop offset=".2" stop-color="#A5ACAF"/><stop offset=".3" stop-color="#98A0A4"/><stop offset=".4" stop-color="#828A8F"/><stop offset=".5" stop-color="#667075"/><stop offset=".6" stop-color="#535C63"/><stop offset=".7" stop-color="#475158"/><stop offset=".8" stop-color="#434D54"/><stop offset="1" stop-color="#475157"/></linearGradient><linearGradient id="paint1_linear_427:10362" x1="5.919" y1="8.162" x2="34.044" y2="31.787" gradientUnits="userSpaceOnUse"><stop stop-color="#0B1F2A"/><stop offset=".2" stop-color="#333F47"/><stop offset=".5" stop-color="#81898D"/><stop offset=".7" stop-color="#B3B8B8"/><stop offset=".8" stop-color="#DEE0DD"/><stop offset="1" stop-color="#FBFBFB"/></linearGradient><linearGradient id="paint2_linear_427:10362" x1="26.836" y1="38.789" x2="13.148" y2="1.165" gradientUnits="userSpaceOnUse"><stop stop-color="#E1E3E1"/><stop offset=".1" stop-color="#C1C5C4"/><stop offset=".3" stop-color="#9BA1A2"/><stop offset=".5" stop-color="#7D8487"/><stop offset=".7" stop-color="#687074" stop-opacity="0"/><stop offset=".8" stop-color="#5B6469" stop-opacity="0"/><stop offset="1" stop-color="#576065" stop-opacity="0"/></linearGradient><linearGradient id="paint3_linear_427:10362" x1="11.376" y1="5.063" x2="28.624" y2="34.936" gradientUnits="userSpaceOnUse"><stop stop-color="#E1E3E1"/><stop offset=".1" stop-color="#C1C5C4"/><stop offset=".3" stop-color="#9BA1A2"/><stop offset=".5" stop-color="#7D8487"/><stop offset=".7" stop-color="#687074" stop-opacity="0"/><stop offset=".8" stop-color="#5B6469" stop-opacity="0"/><stop offset="1" stop-color="#576065" stop-opacity="0"/></linearGradient><linearGradient id="paint4_linear_427:10362" x1="27.806" y1="24.62" x2="26.743" y2="26.37" gradientUnits="userSpaceOnUse"><stop stop-color="#27343C"/><stop offset="1" stop-color="#00111E" stop-opacity="0"/></linearGradient><linearGradient id="paint5_linear_427:10362" x1="24.737" y1="18.195" x2="22.987" y2="15.382" gradientUnits="userSpaceOnUse"><stop offset=".1" stop-color="#02131F"/><stop offset=".9" stop-color="#02131F" stop-opacity="0"/></linearGradient><linearGradient id="paint6_linear_427:10362" x1="19.988" y1="22.709" x2="17.363" y2="23.459" gradientUnits="userSpaceOnUse"><stop offset=".2" stop-color="#02131F"/><stop offset=".9" stop-color="#02131F" stop-opacity="0"/></linearGradient><linearGradient id="paint7_linear_427:10362" x1="12.995" y1="26.19" x2="12.62" y2="25.253" gradientUnits="userSpaceOnUse"><stop stop-color="#02131F"/><stop offset=".1" stop-color="#02131F"/><stop offset="1" stop-color="#02131F" stop-opacity="0"/></linearGradient><linearGradient id="paint8_linear_427:10362" x1="22.251" y1="10.76" x2="20.126" y2="11.01" gradientUnits="userSpaceOnUse"><stop offset=".3" stop-color="#02131F"/><stop offset=".8" stop-color="#02131F" stop-opacity="0"/></linearGradient><linearGradient id="paint9_linear_427:10362" x1="22.317" y1="10.724" x2="20.879" y2="10.912" gradientUnits="userSpaceOnUse"><stop offset=".4" stop-color="#27343C"/><stop offset="1" stop-color="#3B474E" stop-opacity="0"/></linearGradient><linearGradient id="paint10_linear_427:10362" x1="-.224" y1="20.519" x2="17.213" y2="30.582" gradientUnits="userSpaceOnUse"><stop stop-color="#25323B" stop-opacity="0"/><stop offset=".1" stop-color="#27343C"/></linearGradient><linearGradient id="paint11_linear_427:10362" x1="19.969" y1="23.373" x2="19.969" y2="20.373" gradientUnits="userSpaceOnUse"><stop offset=".3" stop-color="#A5ABAF"/><stop offset="1" stop-color="#A5ABAF" stop-opacity="0"/></linearGradient><linearGradient id="paint12_linear_427:10362" x1="29.781" y1="1.437" x2="29.781" y2="39.562" gradientUnits="userSpaceOnUse"><stop stop-color="#6B7378"/><stop offset=".2" stop-color="#333F47"/><stop offset=".5" stop-color="#27343C"/><stop offset=".8" stop-color="#333F47"/><stop offset="1" stop-color="#434D54"/></linearGradient><linearGradient id="paint13_linear_427:10362" x1="35.806" y1="5.059" x2="27.368" y2="17.434" gradientUnits="userSpaceOnUse"><stop offset=".7" stop-color="#49545B"/><stop offset=".8" stop-color="#fff" stop-opacity="0"/></linearGradient></defs></svg>