<?xml version="1.0" standalone="no"?>
<!DOCTYPE svg PUBLIC "-//W3C//DTD SVG 20010904//EN"
 "http://www.w3.org/TR/2001/REC-SVG-20010904/DTD/svg10.dtd">
<svg version="1.0" xmlns="http://www.w3.org/2000/svg"
 width="700.000000pt" height="700.000000pt" viewBox="0 0 700.000000 700.000000"
 preserveAspectRatio="xMidYMid meet">
<metadata>
Created by potrace 1.14, written by Peter Selinger 2001-2017
</metadata>
<g transform="translate(0.000000,700.000000) scale(0.100000,-0.100000)"
fill="#000000" stroke="none">
<path d="M3325 6919 c-393 -19 -775 -107 -1137 -261 l-97 -41 -118 -140 c-65
-78 -121 -146 -125 -152 -4 -6 80 32 185 85 268 133 488 212 767 274 551 122
1154 93 1690 -79 1530 -493 2471 -2019 2229 -3612 -21 -142 -71 -354 -114
-493 -102 -323 -309 -718 -521 -991 -374 -484 -884 -856 -1460 -1067 -649
-237 -1407 -261 -2054 -65 -716 217 -1343 675 -1762 1288 -338 494 -522 1044
-558 1666 -23 409 29 812 158 1204 21 63 32 109 26 102 -7 -6 -66 -77 -132
-156 l-120 -144 -26 -121 c-66 -301 -95 -658 -76 -940 11 -174 9 -191 -30
-191 -19 0 -16 -59 11 -215 165 -947 750 -1806 1587 -2332 212 -133 521 -279
740 -349 72 -23 74 -23 122 -6 50 18 51 18 172 -12 280 -68 507 -95 818 -95
691 0 1320 189 1895 569 327 217 622 495 857 809 80 107 96 123 139 141 46 18
54 28 110 120 505 835 632 1851 348 2795 -57 191 -108 320 -205 515 -136 276
-228 408 -254 365 -9 -15 -21 -2 -126 140 -558 747 -1361 1228 -2269 1359
-126 19 -194 24 -445 35 -41 1 -142 0 -225 -5z"/>
<path d="M3220 6673 c-422 -45 -786 -150 -1140 -329 -773 -391 -1378 -1113
-1630 -1947 -51 -168 -95 -382 -116 -567 -22 -199 -15 -607 14 -795 105 -672
398 -1269 859 -1746 253 -262 540 -468 888 -639 338 -166 637 -257 1013 -307
138 -18 643 -23 693 -7 24 8 174 173 165 182 -3 2 -44 -1 -93 -8 -149 -18
-436 -24 -588 -11 -729 64 -1363 348 -1862 834 -98 95 -110 111 -100 127 6 10
15 16 19 14 4 -3 8 2 8 10 0 9 -37 60 -82 114 -75 89 -168 214 -212 283 l-17
26 183 75 c101 41 652 263 1226 494 735 295 1042 423 1042 434 0 9 3 11 8 4 4
-6 243 -105 532 -222 289 -116 855 -344 1258 -507 787 -317 787 -317 861 -277
18 10 34 22 35 27 0 5 -42 34 -94 63 -1535 868 -2541 1432 -2552 1432 -11 0
-17 -14 -21 -45 -5 -52 -10 -60 -32 -52 -10 5 -15 20 -15 52 0 26 -5 45 -11
45 -6 0 -196 -105 -423 -234 -1276 -724 -2171 -1229 -2201 -1242 -34 -14 -35
-14 -35 10 0 43 17 73 57 97 21 12 560 351 1198 752 638 401 1165 732 1172
734 8 3 18 14 24 25 9 16 6 25 -13 45 l-23 25 60 -27 c101 -46 173 -70 182
-61 8 8 -12 27 -97 98 l-44 36 37 1034 c21 568 45 1211 53 1428 l15 395 26 23
c14 13 29 20 33 15 4 -4 15 -573 24 -1263 21 -1640 25 -1770 44 -1770 14 0 60
23 260 132 39 22 72 37 72 35 0 -2 -63 -44 -139 -93 -77 -49 -138 -90 -136
-92 1 -2 26 1 53 6 95 17 124 6 354 -138 117 -73 584 -368 1038 -655 1067
-675 1120 -708 1126 -703 18 18 -185 186 -1111 918 -623 493 -1053 839 -1057
853 -5 12 -76 490 -159 1062 -217 1497 -227 1569 -235 1600 l-7 28 109 -8
c152 -10 157 -13 81 -55 l-62 -34 112 -13 c780 -87 1506 -507 1988 -1148 181
-241 352 -564 439 -832 17 -50 46 -91 46 -63 0 8 3 10 6 7 4 -3 16 -2 27 4 12
7 17 7 13 1 -3 -6 -2 -12 3 -14 24 -9 91 -374 111 -608 6 -69 16 -159 22 -201
l11 -77 74 -41 c40 -23 75 -41 78 -41 9 0 5 330 -6 428 -79 733 -391 1397
-903 1921 -72 73 -169 166 -216 205 -494 420 -1088 671 -1739 736 -95 9 -501
12 -581 3z m156 -189 c-3 -9 -8 -32 -11 -52 -26 -186 -377 -2612 -380 -2627
-3 -13 -400 -332 -1040 -835 -570 -448 -1040 -816 -1044 -818 -12 -4 -134 277
-181 419 -153 456 -191 952 -110 1431 35 207 100 432 181 626 21 50 35 92 31
92 -4 0 -22 -9 -41 -21 -18 -11 -35 -19 -37 -17 -5 5 79 183 131 278 134 243
295 452 514 671 206 205 395 350 638 488 327 186 733 318 1103 360 52 6 109
13 125 15 17 1 52 4 79 5 40 1 47 -2 42 -15z"/>
</g>
</svg>
